#!OML:ASF X:\für Bonn\!DataBase\2005_08_11_Bastian_Final\c3d\Bastian.ASF
:FULLY-SPECIFIED
:DEGREES
171
root -1.50804 17.0868 -1.13062 898.355 42.3357 -174.175
lowerback 18.1488 -5.72934 1.22719
upperback 15.821 -4.88276 5.69442
thorax 7.643 -1.63898 6.20322
lowerneck -22.3845 -10.7958 -18.5188
upperneck -4.15299 -10.3688 29.2403
head 5.51933 -3.14032 11.744
rclavicle -2.38542e-015 1.35174e-014
rhumerus -31.5857 -0.0975607 -77.7788
rradius 30.4334
rwrist 4.62263
rhand -12.2204 9.9326
rfingers 7.12502
rthumb 13.8446 -19.5866
lclavicle -2.38542e-015 1.35174e-014
lhumerus -8.96049 -25.3041 96.6751
lradius 53.776
lwrist 13.5332
lhand -15.5649 -13.0422
lfingers 7.12502
lthumb 10.6199 16.6695
rfemur -32.7181 -2.77139 20.0139
rtibia 40.9663
rfoot 6.37444 3.06327
rtoes -29.2541
lfemur 17.0256 1.85543 -14.7413
ltibia 20.3455
lfoot -18.3313 -15.1656
ltoes 4.56876
172
root -1.41792 17.0648 -1.1846 898.436 42.1706 -174.163
lowerback 18.1734 -5.76621 1.20541
upperback 15.7871 -4.92693 5.81264
thorax 7.61383 -1.6689 6.35363
lowerneck -22.6219 -10.7416 -18.3283
upperneck -4.02115 -10.3133 29.0318
head 5.5465 -3.10144 11.6372
rclavicle 9.62118e-014 -7.4743e-014
rhumerus -31.6637 0.0380386 -77.6707
rradius 30.4615
rwrist 4.36902
rhand -12.3635 10.0617
rfingers 7.12502
rthumb 13.7067 -19.4669
lclavicle 9.62118e-014 -7.4743e-014
lhumerus -9.23541 -25.1228 96.7925
lradius 53.5666
lwrist 13.3983
lhand -15.6103 -12.9885
lfingers 7.12502
lthumb 10.5761 16.7254
rfemur -32.8271 -3.35743 20.318
rtibia 41.7616
rfoot 5.58108 3.19523
rtoes -28.032
lfemur 17.3217 1.69248 -14.6052
ltibia 20.3196
lfoot -18.4719 -15.2298
ltoes 4.37822
173
root -1.32701 17.0414 -1.23911 898.508 42.0129 -174.147
lowerback 18.2216 -5.79425 1.24477
upperback 15.7522 -4.94872 5.91343
thorax 7.5595 -1.67935 6.44931
lowerneck -22.8563 -10.7194 -18.1518
upperneck -3.88774 -10.3043 28.858
head 5.58996 -3.08345 11.5386
rclavicle -9.14409e-014 4.77083e-015
rhumerus -31.7105 0.0720794 -77.574
rradius 30.4222
rwrist 4.18469
rhand -12.5526 10.2157
rfingers 7.12502
rthumb 13.5245 -19.3251
lclavicle -9.14409e-014 4.77083e-015
lhumerus -9.53205 -24.9929 96.9082
lradius 53.3419
lwrist 13.2102
lhand -15.6722 -12.9998
lfingers 7.12502
lthumb 10.5164 16.7171
rfemur -32.9016 -3.81953 20.5855
rtibia 42.554
rfoot 4.7311 3.15347
rtoes -26.4054
lfemur 17.6217 1.51118 -14.4746
ltibia 20.327
lfoot -18.6049 -15.2498
ltoes 4.02138
174
root -1.23576 17.018 -1.29432 898.596 41.8525 -174.129
lowerback 18.2659 -5.83614 1.28888
upperback 15.7211 -4.98676 6.02333
thorax 7.51458 -1.69774 6.55443
lowerneck -23.1489 -10.6919 -17.9725
upperneck -3.75095 -10.2761 28.6404
head 5.6336 -3.05364 11.4263
rclavicle -4.21423e-014 4.05521e-014
rhumerus -31.7311 0.375595 -77.5198
rradius 30.4413
rwrist 3.8694
rhand -12.8173 10.3167
rfingers 7.12502
rthumb 13.2693 -19.2409
lclavicle -4.21423e-014 4.05521e-014
lhumerus -9.79096 -24.8211 97.012
lradius 53.1067
lwrist 13.0642
lhand -15.6705 -13.0053
lfingers 7.12502
lthumb 10.518 16.7116
rfemur -32.9799 -4.23818 20.8427
rtibia 43.3334
rfoot 3.82958 3.11304
rtoes -24.9145
lfemur 17.9013 1.35521 -14.3362
ltibia 20.3523
lfoot -18.753 -15.2671
ltoes 3.53981
175
root -1.14327 16.9959 -1.34956 898.707 41.6913 -174.113
lowerback 18.2896 -5.86973 1.35734
upperback 15.6786 -5.01343 6.14867
thorax 7.46495 -1.70943 6.66047
lowerneck -23.3841 -10.6864 -17.9157
upperneck -3.66301 -10.2506 28.5015
head 5.67047 -3.02689 11.3676
rclavicle 2.22639e-014 1.03368e-014
rhumerus -31.7088 0.599769 -77.4046
rradius 30.3731
rwrist 3.75605
rhand -13.096 10.4368
rfingers 7.12502
rthumb 13.0006 -19.1381
lclavicle 2.22639e-014 1.03368e-014
lhumerus -10.0473 -24.6448 97.1517
lradius 52.8343
lwrist 12.8375
lhand -15.6447 -13.0259
lfingers 7.12502
lthumb 10.5429 16.6897
rfemur -33.0728 -4.61786 21.0788
rtibia 44.0913
rfoot 2.9302 3.05085
rtoes -23.6262
lfemur 18.1517 1.19697 -14.1922
ltibia 20.3818
lfoot -18.8999 -15.2869
ltoes 3.04986
176
root -1.0487 16.9732 -1.40592 898.81 41.5244 -174.067
lowerback 18.2863 -5.9047 1.49045
upperback 15.6649 -5.03083 6.25236
thorax 7.45212 -1.70688 6.70412
lowerneck -23.5928 -10.6942 -17.8275
upperneck -3.62144 -10.2457 28.368
head 5.69323 -3.0123 11.3004
rclavicle 3.02153e-014 -5.725e-014
rhumerus -31.7032 0.765874 -77.3129
rradius 30.3998
rwrist 3.66173
rhand -13.2836 10.5474
rfingers 7.12502
rthumb 12.8199 -19.039
lclavicle 3.02153e-014 -5.725e-014
lhumerus -10.2588 -24.5729 97.2349
lradius 52.5387
lwrist 12.6755
lhand -15.6231 -13.0748
lfingers 7.12502
lthumb 10.5637 16.6397
rfemur -33.1165 -4.99468 21.3151
rtibia 44.8295
rfoot 2.01239 3.067
rtoes -22.7156
lfemur 18.4452 0.990787 -14.0399
ltibia 20.4036
lfoot -19.0661 -15.276
ltoes 2.46262
177
root -0.953654 16.9516 -1.46293 898.931 41.3439 -174.015
lowerback 18.2475 -5.95808 1.6307
upperback 15.6503 -5.07469 6.36611
thorax 7.46056 -1.71812 6.75598
lowerneck -23.785 -10.683 -17.7764
upperneck -3.5923 -10.203 28.2293
head 5.70224 -2.98177 11.2453
rclavicle -5.40694e-014 -1.27222e-014
rhumerus -31.6615 0.99678 -77.2062
rradius 30.4503
rwrist 3.60402
rhand -13.4349 10.5979
rfingers 7.12502
rthumb 12.6739 -18.9976
lclavicle -5.40694e-014 -1.27222e-014
lhumerus -10.5072 -24.4231 97.3437
lradius 52.2577
lwrist 12.4411
lhand -15.5902 -13.1029
lfingers 7.12502
lthumb 10.5955 16.61
rfemur -33.1859 -5.43475 21.5554
rtibia 45.5532
rfoot 1.07872 3.18773
rtoes -22.0698
lfemur 18.7204 0.837185 -13.8499
ltibia 20.4199
lfoot -19.1977 -15.3524
ltoes 1.93434
178
root -0.856011 16.9304 -1.52032 899.038 41.1632 -173.965
lowerback 18.2061 -5.99954 1.80212
upperback 15.6289 -5.0999 6.47377
thorax 7.45551 -1.71648 6.78105
lowerneck -23.9026 -10.7003 -17.7919
upperneck -3.60355 -10.191 28.1437
head 5.7046 -2.97038 11.2171
rclavicle 9.30312e-014 -4.29375e-014
rhumerus -31.64 1.13481 -77.0789
rradius 30.538
rwrist 3.57671
rhand -13.5181 10.6256
rfingers 7.12502
rthumb 12.5937 -18.9748
lclavicle 9.30312e-014 -4.29375e-014
lhumerus -10.7651 -24.3324 97.4673
lradius 51.9384
lwrist 12.277
lhand -15.582 -13.123
lfingers 7.12502
lthumb 10.6034 16.5895
rfemur -33.2184 -5.8187 21.7697
rtibia 46.2697
rfoot 0.162952 3.28819
rtoes -21.585
lfemur 19.0149 0.669756 -13.6587
ltibia 20.4434
lfoot -19.3469 -15.4025
ltoes 1.24094
179
root -0.757752 16.9084 -1.5783 899.188 40.9815 -173.886
lowerback 18.1346 -6.04328 2.02147
upperback 15.6076 -5.12495 6.57916
thorax 7.46061 -1.71008 6.77477
lowerneck -24.0223 -10.7201 -17.8066
upperneck -3.63341 -10.1778 28.0803
head 5.70404 -2.95667 11.1975
rclavicle -4.77083e-014 9.14409e-014
rhumerus -31.6282 1.15586 -76.9353
rradius 30.7224
rwrist 3.72222
rhand -13.5594 10.6179
rfingers 7.12502
rthumb 12.5539 -18.985
lclavicle -4.77083e-014 9.14409e-014
lhumerus -11.0408 -24.3014 97.5607
lradius 51.6345
lwrist 12.1483
lhand -15.5631 -13.1224
lfingers 7.12502
lthumb 10.6217 16.5891
rfemur -33.2582 -6.19636 21.9913
rtibia 46.9807
rfoot -0.776118 3.39383
rtoes -20.9771
lfemur 19.2762 0.501851 -13.4422
ltibia 20.4896
lfoot -19.4845 -15.4634
ltoes 0.564718
180
root -0.659514 16.8858 -1.63608 899.351 40.8138 -173.807
lowerback 18.0696 -6.0842 2.2322
upperback 15.5754 -5.14761 6.70398
thorax 7.45289 -1.70483 6.79517
lowerneck -24.1381 -10.7332 -17.8418
upperneck -3.64535 -10.1538 27.982
head 5.70249 -2.94059 11.1704
rclavicle 1.36764e-013 -1.51076e-014
rhumerus -31.561 1.14909 -76.739
rradius 30.8911
rwrist 3.82784
rhand -13.5024 10.5811
rfingers 7.12502
rthumb 12.6089 -19.0184
lclavicle 1.36764e-013 -1.51076e-014
lhumerus -11.3242 -24.1647 97.6929
lradius 51.3255
lwrist 11.9938
lhand -15.5216 -13.0912
lfingers 7.12502
lthumb 10.6616 16.6183
rfemur -33.303 -6.53832 22.2041
rtibia 47.6762
rfoot -1.70711 3.48301
rtoes -20.5199
lfemur 19.5151 0.368495 -13.2191
ltibia 20.5614
lfoot -19.6376 -15.5271
ltoes -0.244197
181
root -0.560881 16.8658 -1.69381 899.563 40.6609 -173.696
lowerback 18.0105 -6.1137 2.48291
upperback 15.5097 -5.15477 6.83288
thorax 7.39674 -1.68998 6.7952
lowerneck -24.144 -10.7219 -17.8474
upperneck -3.72837 -10.1046 27.8708
head 5.65421 -2.92348 11.1359
rclavicle -5.48646e-014 1.16885e-013
rhumerus -31.5845 1.19447 -76.5668
rradius 31.1945
rwrist 3.77693
rhand -13.4455 10.4855
rfingers 7.12502
rthumb 12.6637 -19.1106
lclavicle -5.48646e-014 1.16885e-013
lhumerus -11.6598 -24.065 97.8497
lradius 50.9558
lwrist 11.8727
lhand -15.5162 -13.091
lfingers 7.12502
lthumb 10.6669 16.6182
rfemur -33.3602 -6.8632 22.4375
rtibia 48.3477
rfoot -2.58515 3.58996
rtoes -20.087
lfemur 19.718 0.147935 -13.024
ltibia 20.6525
lfoot -19.7768 -15.4418
ltoes -0.910563
182
root -0.46268 16.846 -1.75163 899.782 40.5343 -173.576
lowerback 17.9507 -6.14156 2.7647
upperback 15.4532 -5.15547 6.94208
thorax 7.34522 -1.66747 6.75512
lowerneck -24.1989 -10.7127 -17.8254
upperneck -3.75599 -10.0704 27.7501
head 5.63093 -2.90919 11.0907
rclavicle -1.82882e-014 -1.55052e-013
rhumerus -31.5234 1.25007 -76.43
rradius 31.427
rwrist 3.72462
rhand -13.4423 10.4502
rfingers 7.12502
rthumb 12.6668 -19.1456
lclavicle -1.82882e-014 -1.55052e-013
lhumerus -11.938 -23.9648 97.9673
lradius 50.5074
lwrist 11.7413
lhand -15.4954 -13.071
lfingers 7.12502
lthumb 10.6869 16.6372
rfemur -33.4179 -7.11367 22.6639
rtibia 49.0337
rfoot -3.49229 3.64325
rtoes -19.7253
lfemur 19.8311 -0.101585 -12.8557
ltibia 20.9417
lfoot -20.0107 -15.2878
ltoes -1.54488
183
root -0.363166 16.8266 -1.80935 900.008 40.4278 -173.426
lowerback 17.9275 -6.15802 3.05489
upperback 15.3782 -5.13716 7.06543
thorax 7.25217 -1.63579 6.72586
lowerneck -24.1765 -10.6963 -17.8648
upperneck -3.82173 -10.0171 27.6774
head 5.58905 -2.88999 11.0787
rclavicle -1.52667e-013 2.03555e-013
rhumerus -31.5408 1.37383 -76.2936
rradius 31.7842
rwrist 3.56408
rhand -13.4568 10.3617
rfingers 7.12502
rthumb 12.6529 -19.2351
lclavicle -1.52667e-013 2.03555e-013
lhumerus -12.2257 -23.792 98.1295
lradius 49.9679
lwrist 11.5863
lhand -15.4383 -13.0755
lfingers 7.12502
lthumb 10.742 16.6299
rfemur -33.4279 -7.34303 22.9227
rtibia 49.6611
rfoot -4.35234 3.71439
rtoes -19.4406
lfemur 19.9726 -0.377687 -12.7023
ltibia 21.2574
lfoot -20.325 -14.9582
ltoes -3.04498
184
root -0.264155 16.791 -1.8649 900.336 40.335 -173.145
lowerback 17.915 -6.18995 3.44924
upperback 15.2864 -5.12458 7.195
thorax 7.12497 -1.59779 6.64616
lowerneck -24.1787 -10.6656 -17.852
upperneck -3.85073 -9.961 27.5838
head 5.55627 -2.86802 11.0498
rclavicle 5.08889e-014 -3.18055e-014
rhumerus -31.5487 1.46143 -76.1674
rradius 32.1321
rwrist 3.38443
rhand -13.4409 10.2967
rfingers 7.12502
rthumb 12.6682 -19.2991
lclavicle 5.08889e-014 -3.18055e-014
lhumerus -12.5427 -23.5906 98.2648
lradius 49.4136
lwrist 11.4166
lhand -15.372 -13.074
lfingers 7.12502
lthumb 10.8059 16.628
rfemur -33.5081 -7.52949 23.2921
rtibia 50.2807
rfoot -5.13347 3.72966
rtoes -19.2211
lfemur 20.0629 -0.790737 -12.4976
ltibia 21.6342
lfoot -20.5631 -14.5308
ltoes -4.06037
185
root -0.162594 16.78 -1.92227 900.623 40.2631 -172.895
lowerback 17.9312 -6.21909 3.80593
upperback 15.1976 -5.10989 7.30774
thorax 6.98873 -1.56201 6.57037
lowerneck -24.1689 -10.6216 -17.8547
upperneck -3.86849 -9.88845 27.5225
head 5.52603 -2.83701 11.0397
rclavicle 3.18055e-014 5.725e-014
rhumerus -31.5784 1.57567 -76.0761
rradius 32.525
rwrist 3.26129
rhand -13.4985 10.2848
rfingers 7.12502
rthumb 12.6127 -19.3144
lclavicle 3.18055e-014 5.725e-014
lhumerus -12.8711 -23.4286 98.373
lradius 48.8346
lwrist 11.3176
lhand -15.3759 -13.0469
lfingers 7.12502
lthumb 10.8022 16.6554
rfemur -33.4403 -7.66337 23.6381
rtibia 50.7712
rfoot -5.88469 3.72357
rtoes -18.9293
lfemur 20.1278 -1.24896 -12.3367
ltibia 22.029
lfoot -20.6711 -14.1141
ltoes -4.64649
